<svg width="32" height="32" viewBox="0 0 32 32" fill="none" xmlns="http://www.w3.org/2000/svg">
  <defs>
    <linearGradient id="gradient" x1="0%" y1="0%" x2="100%" y2="100%">
      <stop offset="0%" style="stop-color:#6366f1;stop-opacity:1" />
      <stop offset="100%" style="stop-color:#8b5cf6;stop-opacity:1" />
    </linearGradient>
  </defs>
  <rect width="32" height="32" rx="6" fill="url(#gradient)"/>
  <path d="M9.2 0c1.93 0 3.5 1.57 3.5 3.5V28.5c0 1.93-1.57 3.5-3.5 3.5c-1.81 0-3.29-1.37-3.48-3.13c-0.33 0.09-0.67 0.13-1.02 0.13c-2.21 0-4-1.79-4-4c0-0.46 0.08-0.91 0.23-1.33C1.34 23.0 0 21.14 0 19c0-1.99 1.17-3.72 2.86-4.52C2.32 13.8 2 13.44 2 13c0-1.92 1.35-3.52 3.15-3.91C5.05 7.74 5 7.38 5 7c0-1.87 1.29-3.44 3.02-3.88C9.46 1.37 10.94 0 12.75 0H9.2zM20.5 0c1.81 0 3.29 1.37 3.48 3.13c1.74 0.44 3.02 2.01 3.02 3.88c0 0.38-0.05 0.74-0.15 1.09c1.8 0.39 3.15 1.99 3.15 3.91c0 0.44-0.32 0.8-0.86 1.48C30.83 15.28 32 17.01 32 19c0 2.14-1.34 4-3.35 4.67c0.15 0.42 0.23 0.87 0.23 1.33c0 2.21-1.79 4-4 4c-0.35 0-0.69-0.04-1.02-0.13c-0.19 1.76-1.67 3.13-3.48 3.13c-1.93 0-3.5-1.57-3.5-3.5V3.5c0-1.93 1.57-3.5 3.5-3.5z" fill="white"/>
</svg> 